<mxfile host="app.diagrams.net" modified="2024-06-24T19:02:15.703Z" agent="Mozilla/5.0 (Macintosh; Intel Mac OS X 10_15_7) AppleWebKit/537.36 (KHTML, like Gecko) Chrome/126.0.0.0 Safari/537.36" etag="mdNSvewho9KFf7RMEGoZ" version="24.6.2" type="device">
  <diagram name="Page-1" id="WreZiHgmlUJshKzMANvh">
    <mxGraphModel dx="2474" dy="2020" grid="0" gridSize="10" guides="1" tooltips="1" connect="1" arrows="1" fold="1" page="0" pageScale="1" pageWidth="850" pageHeight="1100" math="0" shadow="0">
      <root>
        <mxCell id="0" />
        <mxCell id="1" parent="0" />
        <mxCell id="TRKosVznT7G8A9XeQNiE-1" value="" style="rounded=0;whiteSpace=wrap;html=1;" parent="1" vertex="1">
          <mxGeometry x="-621" y="-194" width="492" height="681" as="geometry" />
        </mxCell>
        <mxCell id="TRKosVznT7G8A9XeQNiE-2" value="&lt;font style=&quot;font-size: 18px;&quot;&gt;&lt;b&gt;Logo&lt;/b&gt;&lt;/font&gt;" style="text;html=1;align=center;verticalAlign=middle;whiteSpace=wrap;rounded=0;" parent="1" vertex="1">
          <mxGeometry x="-612" y="-182" width="60" height="30" as="geometry" />
        </mxCell>
        <mxCell id="TRKosVznT7G8A9XeQNiE-3" value="login/register" style="text;html=1;align=center;verticalAlign=middle;whiteSpace=wrap;rounded=0;" parent="1" vertex="1">
          <mxGeometry x="-222" y="-183" width="82" height="31" as="geometry" />
        </mxCell>
        <mxCell id="TRKosVznT7G8A9XeQNiE-4" value="" style="shape=cylinder3;whiteSpace=wrap;html=1;boundedLbl=1;backgroundOutline=1;size=15;" parent="1" vertex="1">
          <mxGeometry x="-444.5" y="-85" width="139" height="168" as="geometry" />
        </mxCell>
        <mxCell id="TRKosVznT7G8A9XeQNiE-5" value="soup pot image?" style="text;html=1;align=center;verticalAlign=middle;whiteSpace=wrap;rounded=0;" parent="1" vertex="1">
          <mxGeometry x="-405" y="-36" width="64" height="37" as="geometry" />
        </mxCell>
        <mxCell id="TRKosVznT7G8A9XeQNiE-6" value="" style="rounded=0;whiteSpace=wrap;html=1;" parent="1" vertex="1">
          <mxGeometry x="-110" y="-194" width="492" height="681" as="geometry" />
        </mxCell>
        <mxCell id="TRKosVznT7G8A9XeQNiE-7" value="&lt;font style=&quot;font-size: 18px;&quot;&gt;&lt;b&gt;Logo&lt;/b&gt;&lt;/font&gt;" style="text;html=1;align=center;verticalAlign=middle;whiteSpace=wrap;rounded=0;" parent="1" vertex="1">
          <mxGeometry x="-101" y="-182" width="60" height="30" as="geometry" />
        </mxCell>
        <mxCell id="TRKosVznT7G8A9XeQNiE-8" value="log out" style="text;html=1;align=center;verticalAlign=middle;whiteSpace=wrap;rounded=0;" parent="1" vertex="1">
          <mxGeometry x="321" y="-183" width="50" height="31" as="geometry" />
        </mxCell>
        <mxCell id="TRKosVznT7G8A9XeQNiE-9" value="" style="shape=cylinder3;whiteSpace=wrap;html=1;boundedLbl=1;backgroundOutline=1;size=15;" parent="1" vertex="1">
          <mxGeometry x="162" y="-85" width="139" height="168" as="geometry" />
        </mxCell>
        <mxCell id="TRKosVznT7G8A9XeQNiE-10" value="soup pot image?" style="text;html=1;align=center;verticalAlign=middle;whiteSpace=wrap;rounded=0;" parent="1" vertex="1">
          <mxGeometry x="201.5" y="-36" width="64" height="37" as="geometry" />
        </mxCell>
        <mxCell id="TRKosVznT7G8A9XeQNiE-11" value="my recipes" style="text;html=1;align=center;verticalAlign=middle;whiteSpace=wrap;rounded=0;" parent="1" vertex="1">
          <mxGeometry x="265.5" y="-183" width="50" height="31" as="geometry" />
        </mxCell>
        <mxCell id="TRKosVznT7G8A9XeQNiE-12" value="friends recipes" style="text;html=1;align=center;verticalAlign=middle;whiteSpace=wrap;rounded=0;" parent="1" vertex="1">
          <mxGeometry x="206.5" y="-183" width="50" height="31" as="geometry" />
        </mxCell>
        <mxCell id="TRKosVznT7G8A9XeQNiE-13" value="" style="rounded=1;whiteSpace=wrap;html=1;" parent="1" vertex="1">
          <mxGeometry x="-46" y="-93" width="128" height="189" as="geometry" />
        </mxCell>
        <mxCell id="TRKosVznT7G8A9XeQNiE-14" value="fridge image?" style="text;html=1;align=center;verticalAlign=middle;whiteSpace=wrap;rounded=0;" parent="1" vertex="1">
          <mxGeometry x="-12" y="-58" width="60" height="30" as="geometry" />
        </mxCell>
        <mxCell id="TRKosVznT7G8A9XeQNiE-15" value="" style="rounded=1;whiteSpace=wrap;html=1;" parent="1" vertex="1">
          <mxGeometry x="13.5" y="146" width="245" height="140" as="geometry" />
        </mxCell>
        <mxCell id="TRKosVznT7G8A9XeQNiE-16" value="calendar?" style="text;html=1;align=center;verticalAlign=middle;whiteSpace=wrap;rounded=0;" parent="1" vertex="1">
          <mxGeometry x="108" y="201" width="60" height="30" as="geometry" />
        </mxCell>
        <mxCell id="TRKosVznT7G8A9XeQNiE-17" value="" style="rounded=0;whiteSpace=wrap;html=1;" parent="1" vertex="1">
          <mxGeometry x="436" y="-194" width="492" height="681" as="geometry" />
        </mxCell>
        <mxCell id="TRKosVznT7G8A9XeQNiE-18" value="&lt;font style=&quot;font-size: 18px;&quot;&gt;&lt;b&gt;Logo&lt;/b&gt;&lt;/font&gt;" style="text;html=1;align=center;verticalAlign=middle;whiteSpace=wrap;rounded=0;" parent="1" vertex="1">
          <mxGeometry x="445" y="-182" width="60" height="30" as="geometry" />
        </mxCell>
        <mxCell id="TRKosVznT7G8A9XeQNiE-19" value="nav links" style="text;html=1;align=center;verticalAlign=middle;whiteSpace=wrap;rounded=0;" parent="1" vertex="1">
          <mxGeometry x="835" y="-183" width="82" height="31" as="geometry" />
        </mxCell>
        <mxCell id="TRKosVznT7G8A9XeQNiE-20" value="" style="shape=cylinder3;whiteSpace=wrap;html=1;boundedLbl=1;backgroundOutline=1;size=15;" parent="1" vertex="1">
          <mxGeometry x="491" y="21" width="139" height="168" as="geometry" />
        </mxCell>
        <mxCell id="TRKosVznT7G8A9XeQNiE-21" value="soup pot image?" style="text;html=1;align=center;verticalAlign=middle;whiteSpace=wrap;rounded=0;" parent="1" vertex="1">
          <mxGeometry x="530.5" y="70" width="64" height="37" as="geometry" />
        </mxCell>
        <mxCell id="TRKosVznT7G8A9XeQNiE-23" value="" style="rounded=0;whiteSpace=wrap;html=1;" parent="1" vertex="1">
          <mxGeometry x="668" y="-71" width="213" height="389" as="geometry" />
        </mxCell>
        <mxCell id="TRKosVznT7G8A9XeQNiE-24" value="ingredient 1: Tomatos" style="text;html=1;align=center;verticalAlign=middle;whiteSpace=wrap;rounded=0;" parent="1" vertex="1">
          <mxGeometry x="684" y="-46" width="166" height="30" as="geometry" />
        </mxCell>
        <mxCell id="TRKosVznT7G8A9XeQNiE-25" value="ingredient 2: penne" style="text;html=1;align=center;verticalAlign=middle;whiteSpace=wrap;rounded=0;" parent="1" vertex="1">
          <mxGeometry x="684" y="-18" width="166" height="30" as="geometry" />
        </mxCell>
        <mxCell id="TRKosVznT7G8A9XeQNiE-26" value="ingredient 3: carrots" style="text;html=1;align=center;verticalAlign=middle;whiteSpace=wrap;rounded=0;" parent="1" vertex="1">
          <mxGeometry x="684" y="10" width="166" height="30" as="geometry" />
        </mxCell>
        <mxCell id="TRKosVznT7G8A9XeQNiE-28" value="submit" style="text;html=1;align=center;verticalAlign=middle;whiteSpace=wrap;rounded=0;" parent="1" vertex="1">
          <mxGeometry x="681" y="70" width="166" height="30" as="geometry" />
        </mxCell>
        <mxCell id="TRKosVznT7G8A9XeQNiE-29" value="" style="shape=cylinder3;whiteSpace=wrap;html=1;boundedLbl=1;backgroundOutline=1;size=15;" parent="1" vertex="1">
          <mxGeometry x="957" y="30" width="139" height="168" as="geometry" />
        </mxCell>
        <mxCell id="TRKosVznT7G8A9XeQNiE-30" value="soup pot image?" style="text;html=1;align=center;verticalAlign=middle;whiteSpace=wrap;rounded=0;" parent="1" vertex="1">
          <mxGeometry x="996.5" y="79" width="64" height="37" as="geometry" />
        </mxCell>
        <mxCell id="TRKosVznT7G8A9XeQNiE-31" value="" style="rounded=0;whiteSpace=wrap;html=1;" parent="1" vertex="1">
          <mxGeometry x="1134" y="-62" width="210" height="108" as="geometry" />
        </mxCell>
        <mxCell id="TRKosVznT7G8A9XeQNiE-37" value="discription" style="text;html=1;align=center;verticalAlign=middle;whiteSpace=wrap;rounded=0;" parent="1" vertex="1">
          <mxGeometry x="1246" y="-20" width="60" height="30" as="geometry" />
        </mxCell>
        <mxCell id="TRKosVznT7G8A9XeQNiE-38" value="" style="rounded=1;whiteSpace=wrap;html=1;" parent="1" vertex="1">
          <mxGeometry x="1141" y="-46" width="102" height="80" as="geometry" />
        </mxCell>
        <mxCell id="TRKosVznT7G8A9XeQNiE-39" value="image" style="text;html=1;align=center;verticalAlign=middle;whiteSpace=wrap;rounded=0;" parent="1" vertex="1">
          <mxGeometry x="1160" y="-21" width="60" height="30" as="geometry" />
        </mxCell>
        <mxCell id="TRKosVznT7G8A9XeQNiE-40" value="" style="rounded=0;whiteSpace=wrap;html=1;" parent="1" vertex="1">
          <mxGeometry x="1132" y="60" width="210" height="108" as="geometry" />
        </mxCell>
        <mxCell id="TRKosVznT7G8A9XeQNiE-41" value="discription" style="text;html=1;align=center;verticalAlign=middle;whiteSpace=wrap;rounded=0;" parent="1" vertex="1">
          <mxGeometry x="1244" y="102" width="60" height="30" as="geometry" />
        </mxCell>
        <mxCell id="TRKosVznT7G8A9XeQNiE-42" value="" style="rounded=1;whiteSpace=wrap;html=1;" parent="1" vertex="1">
          <mxGeometry x="1139" y="76" width="102" height="80" as="geometry" />
        </mxCell>
        <mxCell id="TRKosVznT7G8A9XeQNiE-43" value="image" style="text;html=1;align=center;verticalAlign=middle;whiteSpace=wrap;rounded=0;" parent="1" vertex="1">
          <mxGeometry x="1158" y="101" width="60" height="30" as="geometry" />
        </mxCell>
        <mxCell id="TRKosVznT7G8A9XeQNiE-44" value="" style="rounded=0;whiteSpace=wrap;html=1;" parent="1" vertex="1">
          <mxGeometry x="1132" y="180" width="210" height="108" as="geometry" />
        </mxCell>
        <mxCell id="TRKosVznT7G8A9XeQNiE-45" value="discription" style="text;html=1;align=center;verticalAlign=middle;whiteSpace=wrap;rounded=0;" parent="1" vertex="1">
          <mxGeometry x="1244" y="222" width="60" height="30" as="geometry" />
        </mxCell>
        <mxCell id="TRKosVznT7G8A9XeQNiE-46" value="" style="rounded=1;whiteSpace=wrap;html=1;" parent="1" vertex="1">
          <mxGeometry x="1139" y="196" width="102" height="80" as="geometry" />
        </mxCell>
        <mxCell id="TRKosVznT7G8A9XeQNiE-47" value="image" style="text;html=1;align=center;verticalAlign=middle;whiteSpace=wrap;rounded=0;" parent="1" vertex="1">
          <mxGeometry x="1158" y="221" width="60" height="30" as="geometry" />
        </mxCell>
        <mxCell id="TRKosVznT7G8A9XeQNiE-48" value="options!" style="text;html=1;align=center;verticalAlign=middle;whiteSpace=wrap;rounded=0;" parent="1" vertex="1">
          <mxGeometry x="1204" y="-101" width="60" height="30" as="geometry" />
        </mxCell>
        <mxCell id="TRKosVznT7G8A9XeQNiE-49" value="" style="rounded=0;whiteSpace=wrap;html=1;" parent="1" vertex="1">
          <mxGeometry x="1439" y="-80" width="243" height="329" as="geometry" />
        </mxCell>
        <mxCell id="TRKosVznT7G8A9XeQNiE-50" value="recipe" style="text;html=1;align=center;verticalAlign=middle;whiteSpace=wrap;rounded=0;" parent="1" vertex="1">
          <mxGeometry x="1526" y="-71" width="60" height="30" as="geometry" />
        </mxCell>
        <mxCell id="TRKosVznT7G8A9XeQNiE-51" value="" style="endArrow=classic;html=1;rounded=0;entryX=0.004;entryY=0.347;entryDx=0;entryDy=0;entryPerimeter=0;" parent="1" source="TRKosVznT7G8A9XeQNiE-9" target="TRKosVznT7G8A9XeQNiE-17" edge="1">
          <mxGeometry width="50" height="50" relative="1" as="geometry">
            <mxPoint x="828" y="225" as="sourcePoint" />
            <mxPoint x="878" y="175" as="targetPoint" />
          </mxGeometry>
        </mxCell>
        <mxCell id="TRKosVznT7G8A9XeQNiE-53" value="" style="endArrow=classic;html=1;rounded=0;exitX=0.627;exitY=0.433;exitDx=0;exitDy=0;exitPerimeter=0;" parent="1" source="TRKosVznT7G8A9XeQNiE-28" edge="1">
          <mxGeometry width="50" height="50" relative="1" as="geometry">
            <mxPoint x="828" y="225" as="sourcePoint" />
            <mxPoint x="947" y="87" as="targetPoint" />
          </mxGeometry>
        </mxCell>
        <mxCell id="TRKosVznT7G8A9XeQNiE-54" value="" style="endArrow=classic;html=1;rounded=0;exitX=1;exitY=0.5;exitDx=0;exitDy=0;entryX=0;entryY=0.201;entryDx=0;entryDy=0;entryPerimeter=0;" parent="1" source="TRKosVznT7G8A9XeQNiE-31" target="TRKosVznT7G8A9XeQNiE-49" edge="1">
          <mxGeometry width="50" height="50" relative="1" as="geometry">
            <mxPoint x="828" y="225" as="sourcePoint" />
            <mxPoint x="878" y="175" as="targetPoint" />
          </mxGeometry>
        </mxCell>
        <mxCell id="TRKosVznT7G8A9XeQNiE-56" value="" style="rounded=0;whiteSpace=wrap;html=1;" parent="1" vertex="1">
          <mxGeometry x="1612" y="256" width="70" height="28" as="geometry" />
        </mxCell>
        <mxCell id="TRKosVznT7G8A9XeQNiE-57" value="Save" style="text;html=1;align=center;verticalAlign=middle;whiteSpace=wrap;rounded=0;" parent="1" vertex="1">
          <mxGeometry x="1617" y="256" width="60" height="30" as="geometry" />
        </mxCell>
        <mxCell id="TRKosVznT7G8A9XeQNiE-58" value="" style="rounded=1;whiteSpace=wrap;html=1;" parent="1" vertex="1">
          <mxGeometry x="-41" y="606" width="128" height="189" as="geometry" />
        </mxCell>
        <mxCell id="TRKosVznT7G8A9XeQNiE-59" value="open fridge image?" style="text;html=1;align=center;verticalAlign=middle;whiteSpace=wrap;rounded=0;" parent="1" vertex="1">
          <mxGeometry x="-7" y="641" width="68" height="30" as="geometry" />
        </mxCell>
        <mxCell id="TRKosVznT7G8A9XeQNiE-60" value="item" style="text;html=1;align=center;verticalAlign=middle;whiteSpace=wrap;rounded=0;" parent="1" vertex="1">
          <mxGeometry x="135" y="606" width="60" height="30" as="geometry" />
        </mxCell>
        <mxCell id="TRKosVznT7G8A9XeQNiE-61" value="expiry" style="text;html=1;align=center;verticalAlign=middle;whiteSpace=wrap;rounded=0;" parent="1" vertex="1">
          <mxGeometry x="208" y="606" width="60" height="30" as="geometry" />
        </mxCell>
        <mxCell id="TRKosVznT7G8A9XeQNiE-62" value="carrots" style="text;html=1;align=center;verticalAlign=middle;whiteSpace=wrap;rounded=0;" parent="1" vertex="1">
          <mxGeometry x="135" y="639" width="60" height="30" as="geometry" />
        </mxCell>
        <mxCell id="TRKosVznT7G8A9XeQNiE-63" value="5 days" style="text;html=1;align=center;verticalAlign=middle;whiteSpace=wrap;rounded=0;" parent="1" vertex="1">
          <mxGeometry x="208" y="639" width="60" height="30" as="geometry" />
        </mxCell>
        <mxCell id="TRKosVznT7G8A9XeQNiE-64" value="cream" style="text;html=1;align=center;verticalAlign=middle;whiteSpace=wrap;rounded=0;" parent="1" vertex="1">
          <mxGeometry x="135" y="669" width="60" height="30" as="geometry" />
        </mxCell>
        <mxCell id="TRKosVznT7G8A9XeQNiE-65" value="2 days" style="text;html=1;align=center;verticalAlign=middle;whiteSpace=wrap;rounded=0;" parent="1" vertex="1">
          <mxGeometry x="208" y="669" width="60" height="30" as="geometry" />
        </mxCell>
        <mxCell id="TRKosVznT7G8A9XeQNiE-67" value="chicken" style="text;html=1;align=center;verticalAlign=middle;whiteSpace=wrap;rounded=0;" parent="1" vertex="1">
          <mxGeometry x="132.5" y="699" width="60" height="30" as="geometry" />
        </mxCell>
        <mxCell id="TRKosVznT7G8A9XeQNiE-68" value="7 days" style="text;html=1;align=center;verticalAlign=middle;whiteSpace=wrap;rounded=0;" parent="1" vertex="1">
          <mxGeometry x="205.5" y="699" width="60" height="30" as="geometry" />
        </mxCell>
        <mxCell id="TRKosVznT7G8A9XeQNiE-69" value="" style="rounded=0;whiteSpace=wrap;html=1;" parent="1" vertex="1">
          <mxGeometry x="126.5" y="585" width="77" height="19" as="geometry" />
        </mxCell>
        <mxCell id="TRKosVznT7G8A9XeQNiE-72" value="" style="rounded=0;whiteSpace=wrap;html=1;" parent="1" vertex="1">
          <mxGeometry x="213" y="585" width="48" height="19" as="geometry" />
        </mxCell>
        <mxCell id="TRKosVznT7G8A9XeQNiE-73" value="" style="rounded=0;whiteSpace=wrap;html=1;" parent="1" vertex="1">
          <mxGeometry x="271" y="585" width="72" height="19" as="geometry" />
        </mxCell>
        <mxCell id="TRKosVznT7G8A9XeQNiE-74" value="Add Item" style="text;html=1;align=center;verticalAlign=middle;whiteSpace=wrap;rounded=0;" parent="1" vertex="1">
          <mxGeometry x="275.75" y="579.5" width="62.5" height="30" as="geometry" />
        </mxCell>
        <mxCell id="TRKosVznT7G8A9XeQNiE-75" value="" style="endArrow=classic;html=1;rounded=0;exitX=0.18;exitY=0.995;exitDx=0;exitDy=0;exitPerimeter=0;" parent="1" source="TRKosVznT7G8A9XeQNiE-13" edge="1">
          <mxGeometry width="50" height="50" relative="1" as="geometry">
            <mxPoint x="131" y="402" as="sourcePoint" />
            <mxPoint x="26" y="584" as="targetPoint" />
          </mxGeometry>
        </mxCell>
        <mxCell id="TRKosVznT7G8A9XeQNiE-76" value="" style="endArrow=classic;html=1;rounded=0;exitX=0.876;exitY=0.986;exitDx=0;exitDy=0;exitPerimeter=0;" parent="1" source="TRKosVznT7G8A9XeQNiE-15" edge="1">
          <mxGeometry width="50" height="50" relative="1" as="geometry">
            <mxPoint x="507" y="485" as="sourcePoint" />
            <mxPoint x="465" y="580" as="targetPoint" />
          </mxGeometry>
        </mxCell>
        <mxCell id="TRKosVznT7G8A9XeQNiE-77" value="" style="rounded=1;whiteSpace=wrap;html=1;" parent="1" vertex="1">
          <mxGeometry x="436" y="595" width="261" height="186" as="geometry" />
        </mxCell>
        <mxCell id="TRKosVznT7G8A9XeQNiE-78" value="" style="rounded=0;whiteSpace=wrap;html=1;" parent="1" vertex="1">
          <mxGeometry x="725" y="598" width="238" height="181" as="geometry" />
        </mxCell>
        <mxCell id="TRKosVznT7G8A9XeQNiE-79" value="event details" style="text;html=1;align=center;verticalAlign=middle;whiteSpace=wrap;rounded=0;" parent="1" vertex="1">
          <mxGeometry x="810" y="565" width="79" height="30" as="geometry" />
        </mxCell>
        <mxCell id="TRKosVznT7G8A9XeQNiE-80" value="invited: friend a, friend b, ..." style="text;html=1;align=center;verticalAlign=middle;whiteSpace=wrap;rounded=0;" parent="1" vertex="1">
          <mxGeometry x="735" y="604" width="209" height="30" as="geometry" />
        </mxCell>
        <mxCell id="TRKosVznT7G8A9XeQNiE-81" value="attending: friend b, friend e, ..." style="text;html=1;align=center;verticalAlign=middle;whiteSpace=wrap;rounded=0;" parent="1" vertex="1">
          <mxGeometry x="735" y="626" width="209" height="30" as="geometry" />
        </mxCell>
        <mxCell id="TRKosVznT7G8A9XeQNiE-82" value="soup options!" style="text;html=1;align=center;verticalAlign=middle;whiteSpace=wrap;rounded=0;" parent="1" vertex="1">
          <mxGeometry x="785" y="661" width="118" height="30" as="geometry" />
        </mxCell>
        <mxCell id="TRKosVznT7G8A9XeQNiE-83" value="" style="rounded=1;whiteSpace=wrap;html=1;" parent="1" vertex="1">
          <mxGeometry x="732.5" y="703" width="69" height="60" as="geometry" />
        </mxCell>
        <mxCell id="TRKosVznT7G8A9XeQNiE-84" value="" style="rounded=1;whiteSpace=wrap;html=1;" parent="1" vertex="1">
          <mxGeometry x="812" y="703" width="69" height="60" as="geometry" />
        </mxCell>
        <mxCell id="TRKosVznT7G8A9XeQNiE-85" value="" style="rounded=1;whiteSpace=wrap;html=1;" parent="1" vertex="1">
          <mxGeometry x="889" y="701" width="69" height="60" as="geometry" />
        </mxCell>
        <mxCell id="TRKosVznT7G8A9XeQNiE-86" value="Calendar" style="text;html=1;align=center;verticalAlign=middle;whiteSpace=wrap;rounded=0;" parent="1" vertex="1">
          <mxGeometry x="476" y="616" width="60" height="30" as="geometry" />
        </mxCell>
        <mxCell id="TRKosVznT7G8A9XeQNiE-89" value="" style="rounded=1;whiteSpace=wrap;html=1;" parent="1" vertex="1">
          <mxGeometry x="113" y="-623" width="138" height="134" as="geometry" />
        </mxCell>
        <mxCell id="TRKosVznT7G8A9XeQNiE-90" value="description" style="text;html=1;align=center;verticalAlign=middle;whiteSpace=wrap;rounded=0;" parent="1" vertex="1">
          <mxGeometry x="278.25" y="-585" width="60" height="30" as="geometry" />
        </mxCell>
        <mxCell id="TRKosVznT7G8A9XeQNiE-91" value="saved by: me/friend name" style="text;html=1;align=center;verticalAlign=middle;whiteSpace=wrap;rounded=0;" parent="1" vertex="1">
          <mxGeometry x="261.5" y="-617" width="169" height="30" as="geometry" />
        </mxCell>
        <mxCell id="TRKosVznT7G8A9XeQNiE-92" value="ingredients:&amp;nbsp;" style="text;html=1;align=center;verticalAlign=middle;whiteSpace=wrap;rounded=0;" parent="1" vertex="1">
          <mxGeometry x="275.75" y="-555" width="69" height="30" as="geometry" />
        </mxCell>
        <mxCell id="TRKosVznT7G8A9XeQNiE-94" value="" style="rounded=1;whiteSpace=wrap;html=1;" parent="1" vertex="1">
          <mxGeometry x="113" y="-478" width="138" height="134" as="geometry" />
        </mxCell>
        <mxCell id="TRKosVznT7G8A9XeQNiE-95" value="description" style="text;html=1;align=center;verticalAlign=middle;whiteSpace=wrap;rounded=0;" parent="1" vertex="1">
          <mxGeometry x="278.25" y="-440" width="60" height="30" as="geometry" />
        </mxCell>
        <mxCell id="TRKosVznT7G8A9XeQNiE-96" value="saved by: me/friend name" style="text;html=1;align=center;verticalAlign=middle;whiteSpace=wrap;rounded=0;" parent="1" vertex="1">
          <mxGeometry x="261.5" y="-472" width="169" height="30" as="geometry" />
        </mxCell>
        <mxCell id="TRKosVznT7G8A9XeQNiE-97" value="ingredients:&amp;nbsp;" style="text;html=1;align=center;verticalAlign=middle;whiteSpace=wrap;rounded=0;" parent="1" vertex="1">
          <mxGeometry x="275.75" y="-410" width="69" height="30" as="geometry" />
        </mxCell>
        <mxCell id="TRKosVznT7G8A9XeQNiE-98" value="" style="rounded=1;whiteSpace=wrap;html=1;" parent="1" vertex="1">
          <mxGeometry x="113" y="-765" width="138" height="134" as="geometry" />
        </mxCell>
        <mxCell id="TRKosVznT7G8A9XeQNiE-99" value="description" style="text;html=1;align=center;verticalAlign=middle;whiteSpace=wrap;rounded=0;" parent="1" vertex="1">
          <mxGeometry x="278.25" y="-727" width="60" height="30" as="geometry" />
        </mxCell>
        <mxCell id="TRKosVznT7G8A9XeQNiE-100" value="saved by: me/friend name" style="text;html=1;align=center;verticalAlign=middle;whiteSpace=wrap;rounded=0;" parent="1" vertex="1">
          <mxGeometry x="261.5" y="-759" width="169" height="30" as="geometry" />
        </mxCell>
        <mxCell id="TRKosVznT7G8A9XeQNiE-101" value="ingredients:&amp;nbsp;" style="text;html=1;align=center;verticalAlign=middle;whiteSpace=wrap;rounded=0;" parent="1" vertex="1">
          <mxGeometry x="275.75" y="-697" width="69" height="30" as="geometry" />
        </mxCell>
        <mxCell id="TRKosVznT7G8A9XeQNiE-102" value="&lt;font style=&quot;font-size: 36px;&quot;&gt;. . .&lt;/font&gt;" style="text;html=1;align=center;verticalAlign=middle;whiteSpace=wrap;rounded=0;" parent="1" vertex="1">
          <mxGeometry x="226" y="-342" width="60" height="30" as="geometry" />
        </mxCell>
        <mxCell id="TRKosVznT7G8A9XeQNiE-103" value="&lt;font style=&quot;font-size: 36px;&quot;&gt;. . .&lt;/font&gt;" style="text;html=1;align=center;verticalAlign=middle;whiteSpace=wrap;rounded=0;" parent="1" vertex="1">
          <mxGeometry x="1200" y="282" width="60" height="30" as="geometry" />
        </mxCell>
        <mxCell id="TRKosVznT7G8A9XeQNiE-104" value="&lt;font style=&quot;font-size: 36px;&quot;&gt;. . .&lt;/font&gt;" style="text;html=1;align=center;verticalAlign=middle;whiteSpace=wrap;rounded=0;" parent="1" vertex="1">
          <mxGeometry x="166" y="709" width="60" height="30" as="geometry" />
        </mxCell>
        <mxCell id="TRKosVznT7G8A9XeQNiE-105" value="&lt;font style=&quot;font-size: 36px;&quot;&gt;. . .&lt;/font&gt;" style="text;html=1;align=center;verticalAlign=middle;whiteSpace=wrap;rounded=0;" parent="1" vertex="1">
          <mxGeometry x="737" y="18" width="60" height="30" as="geometry" />
        </mxCell>
        <mxCell id="TRKosVznT7G8A9XeQNiE-106" value="" style="endArrow=classic;html=1;rounded=0;exitX=0.5;exitY=0;exitDx=0;exitDy=0;" parent="1" source="TRKosVznT7G8A9XeQNiE-12" edge="1">
          <mxGeometry width="50" height="50" relative="1" as="geometry">
            <mxPoint x="319" y="-263" as="sourcePoint" />
            <mxPoint x="217" y="-293" as="targetPoint" />
          </mxGeometry>
        </mxCell>
        <mxCell id="TRKosVznT7G8A9XeQNiE-107" value="" style="endArrow=classic;html=1;rounded=0;exitX=0.5;exitY=0;exitDx=0;exitDy=0;" parent="1" source="TRKosVznT7G8A9XeQNiE-11" edge="1">
          <mxGeometry width="50" height="50" relative="1" as="geometry">
            <mxPoint x="319" y="-263" as="sourcePoint" />
            <mxPoint x="257" y="-291" as="targetPoint" />
          </mxGeometry>
        </mxCell>
        <mxCell id="TRKosVznT7G8A9XeQNiE-108" value="" style="endArrow=classic;html=1;rounded=0;exitX=1.004;exitY=0.542;exitDx=0;exitDy=0;exitPerimeter=0;entryX=0.002;entryY=0.385;entryDx=0;entryDy=0;entryPerimeter=0;" parent="1" source="TRKosVznT7G8A9XeQNiE-4" target="TRKosVznT7G8A9XeQNiE-17" edge="1">
          <mxGeometry width="50" height="50" relative="1" as="geometry">
            <mxPoint x="319" y="-263" as="sourcePoint" />
            <mxPoint x="369" y="-313" as="targetPoint" />
          </mxGeometry>
        </mxCell>
        <mxCell id="TRKosVznT7G8A9XeQNiE-109" value="" style="endArrow=classic;html=1;rounded=0;exitX=1;exitY=0.5;exitDx=0;exitDy=0;entryX=0.006;entryY=0.075;entryDx=0;entryDy=0;entryPerimeter=0;" parent="1" source="TRKosVznT7G8A9XeQNiE-3" target="TRKosVznT7G8A9XeQNiE-6" edge="1">
          <mxGeometry width="50" height="50" relative="1" as="geometry">
            <mxPoint x="319" y="138" as="sourcePoint" />
            <mxPoint x="369" y="88" as="targetPoint" />
          </mxGeometry>
        </mxCell>
        <mxCell id="-U2MRia5aPalhRiEbLHD-1" value="" style="rounded=0;whiteSpace=wrap;html=1;" parent="1" vertex="1">
          <mxGeometry x="530.5" y="-759" width="243" height="329" as="geometry" />
        </mxCell>
        <mxCell id="-U2MRia5aPalhRiEbLHD-2" value="recipe" style="text;html=1;align=center;verticalAlign=middle;whiteSpace=wrap;rounded=0;" parent="1" vertex="1">
          <mxGeometry x="617.5" y="-750" width="60" height="30" as="geometry" />
        </mxCell>
        <mxCell id="-U2MRia5aPalhRiEbLHD-3" value="" style="rounded=0;whiteSpace=wrap;html=1;" parent="1" vertex="1">
          <mxGeometry x="703.5" y="-423" width="70" height="28" as="geometry" />
        </mxCell>
        <mxCell id="-U2MRia5aPalhRiEbLHD-4" value="Save" style="text;html=1;align=center;verticalAlign=middle;whiteSpace=wrap;rounded=0;" parent="1" vertex="1">
          <mxGeometry x="708.5" y="-423" width="60" height="30" as="geometry" />
        </mxCell>
        <mxCell id="-U2MRia5aPalhRiEbLHD-10" value="" style="rounded=1;whiteSpace=wrap;html=1;" parent="1" vertex="1">
          <mxGeometry x="706" y="-353" width="74" height="26" as="geometry" />
        </mxCell>
        <mxCell id="-U2MRia5aPalhRiEbLHD-11" value="Submit" style="text;html=1;align=center;verticalAlign=middle;whiteSpace=wrap;rounded=0;" parent="1" vertex="1">
          <mxGeometry x="713" y="-353" width="60" height="30" as="geometry" />
        </mxCell>
        <mxCell id="-U2MRia5aPalhRiEbLHD-12" value="insert text..." style="rounded=0;whiteSpace=wrap;html=1;" parent="1" vertex="1">
          <mxGeometry x="533" y="-367" width="163.5" height="58" as="geometry" />
        </mxCell>
        <mxCell id="-U2MRia5aPalhRiEbLHD-13" value="&lt;b&gt;&lt;font style=&quot;font-size: 18px;&quot;&gt;Reviews&lt;/font&gt;&lt;/b&gt;" style="text;html=1;align=center;verticalAlign=middle;whiteSpace=wrap;rounded=0;" parent="1" vertex="1">
          <mxGeometry x="550" y="-397" width="60" height="30" as="geometry" />
        </mxCell>
        <mxCell id="-U2MRia5aPalhRiEbLHD-14" value="This a great soup for summer!" style="text;html=1;align=center;verticalAlign=middle;whiteSpace=wrap;rounded=0;" parent="1" vertex="1">
          <mxGeometry x="491" y="-285" width="241.5" height="30" as="geometry" />
        </mxCell>
        <mxCell id="-U2MRia5aPalhRiEbLHD-15" value="friend a:" style="text;html=1;align=center;verticalAlign=middle;whiteSpace=wrap;rounded=0;" parent="1" vertex="1">
          <mxGeometry x="525" y="-301" width="60" height="30" as="geometry" />
        </mxCell>
        <mxCell id="-U2MRia5aPalhRiEbLHD-16" value="5/5" style="text;html=1;align=center;verticalAlign=middle;whiteSpace=wrap;rounded=0;" parent="1" vertex="1">
          <mxGeometry x="696.5" y="-291" width="60" height="30" as="geometry" />
        </mxCell>
        <mxCell id="-U2MRia5aPalhRiEbLHD-17" value="5/5 stars!" style="text;html=1;align=center;verticalAlign=middle;whiteSpace=wrap;rounded=0;" parent="1" vertex="1">
          <mxGeometry x="547" y="-425" width="60" height="30" as="geometry" />
        </mxCell>
        <mxCell id="-U2MRia5aPalhRiEbLHD-18" value="Sort by fields? friend/rating/ingredient" style="text;html=1;align=center;verticalAlign=middle;whiteSpace=wrap;rounded=0;" parent="1" vertex="1">
          <mxGeometry x="142" y="-806" width="218" height="30" as="geometry" />
        </mxCell>
        <mxCell id="Dy6tZ6WzsWg35J0YH8A7-1" value="" style="endArrow=classic;html=1;rounded=0;" edge="1" parent="1">
          <mxGeometry width="50" height="50" relative="1" as="geometry">
            <mxPoint x="373" y="-708" as="sourcePoint" />
            <mxPoint x="510" y="-687" as="targetPoint" />
          </mxGeometry>
        </mxCell>
      </root>
    </mxGraphModel>
  </diagram>
</mxfile>
